<svg class="reinsert-tray" viewBox="0 0 500 500" fill="none" xmlns="http://www.w3.org/2000/svg">
  <g clip-path="url(#clip0_571_14847)">
    <path class="phone-bottom" d="M233.187 104.5C233.187 106.518 232.95 108.162 232.551 109.5M108.278 59.5003C108.278 59.5003 104.44 58.507 101.181 60.0885M101.181 60.0885C99.9906 61.6008 99.1816 63.8655 99.1816 67.2278C99.1816 78.5003 106.182 80.5003 106.182 80.5003L225.865 113C225.865 113 228.522 113.677 231.071 112.496M101.181 60.0885C98.7764 61.2553 96.6868 63.824 96.6868 69.2278C96.6868 80.5003 103.687 82.5003 103.687 82.5003L223.371 115C223.371 115 228.185 116.226 231.071 112.496M231.071 112.496C231.666 111.727 232.179 110.746 232.551 109.5M127.182 82.0002V64.4186M127.182 82.0002L232.551 109.5M127.182 82.0002L149.81 70.4642M0.681641 60.7524L342.531 153.139M115.182 76.5003C117.68 76.6012 119.492 74.904 120.182 72.5003C121.078 69.3765 118.931 65.493 115.682 65.5003C113.081 65.5062 111.258 67.4453 110.773 70.0003C110.202 73.0138 112.117 76.3766 115.182 76.5003Z" stroke="url(#paint0_linear_571_14847)"/>
    <g>
      <path class="tray" d="M223.434 115L103.75 82.5C103.75 82.5 96.75 80.5 96.75 69.2274C96.75 63.1049 99.4323 60.6218 102.216 59.6935C105.632 57.281 110.341 58.5 110.341 58.5L133.859 64.7833L256.286 3.5L348.25 28V32.5L234.043 96.8962C234.777 98.6729 235.25 100.847 235.25 103.5C235.25 110.506 232.399 113.01 229.77 113.83C226.947 115.895 223.434 115 223.434 115Z" fill="white"/>
      <path class="tray" d="M348.25 28L256.286 3.5L133.859 64.7833M348.25 28V32.5L234.043 96.8962M348.25 28C305.06 52.2244 272.187 70.397 231.678 93.1097M321.75 30.5L256.286 14L146.75 68.2274M133.859 64.7833L110.341 58.5C110.341 58.5 105.632 57.281 102.216 59.6935M133.859 64.7833L142.156 67M142.156 67L146.75 68.2274M142.156 67L256.286 9L321.75 26L323.75 36L225.772 89.3401M146.75 68.2274L225.772 89.3401M102.216 59.6935C99.4323 60.6218 96.75 63.1049 96.75 69.2274C96.75 80.5 103.75 82.5 103.75 82.5L223.434 115C223.434 115 226.947 115.895 229.77 113.83M102.216 59.6935C105.22 58.6921 108.341 59.5 108.341 59.5L223.882 90.3693C223.882 90.3693 233.25 92.6958 233.25 104.5C233.25 109.722 231.666 112.443 229.77 113.83M231.678 93.1097C230.129 91.3781 228.036 89.9449 225.772 89.3401M231.678 93.1097C232.57 94.1069 233.405 95.3512 234.043 96.8962M234.043 96.8962C234.777 98.6729 235.25 100.847 235.25 103.5C235.25 110.506 232.399 113.01 229.77 113.83M115.854 77.5L114.928 77.5476C110.75 77.5 110.027 73.6396 110.519 71.0476C110.784 69.6507 111.557 68.3663 112.53 67.5529M108.341 72C107.77 75.0135 109.685 78.3762 112.75 78.5C115.249 78.6009 117.061 76.9037 117.75 74.5C118.646 71.3761 116.5 67.4927 113.25 67.5C110.649 67.5059 108.826 69.445 108.341 72Z" stroke="#202124"/>
    </g>
    <path class="sim" d="M118.13 1L3.98145 58.9934L87.6165 81.3401L185.594 28L183.594 18L118.13 1Z" fill="white"/>
    <path class="sim" d="M140.957 13.5C135.147 11.9729 129.337 10.4457 123.527 8.91863C120.046 8.00351 116.352 8.37089 113.118 9.95368L67.0653 32.5M140.957 13.5L156.174 17.5M140.957 13.5L116.254 26.1406L103.903 32.4609M42.1473 64.0625L23.957 59.497C21.2448 58.8163 20.8567 55.1224 23.3682 53.8928L67.0653 32.5M42.1473 64.0625L59.5788 68.4375M42.1473 64.0625L66.8496 51.4219L79.2008 45.1016M156.174 17.5L171.752 21.5948C174.37 22.283 174.809 25.8138 172.439 27.1225L132.363 49.25M156.174 17.5L132.025 30.2344L119.951 36.6016M59.5788 68.4375L79.9959 73.5619C83.6783 74.4861 87.5741 73.9796 90.8977 72.1445L132.363 49.25M59.5788 68.4375L83.7276 55.7031L95.802 49.3359M67.0653 32.5L79.2008 45.1016M67.0653 32.5L103.903 32.4609M132.363 49.25L95.802 49.3359M132.363 49.25L119.951 36.6016M79.2008 45.1016L95.802 49.3359M103.903 32.4609L119.951 36.6016M87.6165 81.3401L3.98145 58.9934L118.13 1L183.594 18L185.594 28L87.6165 81.3401Z" stroke="#202124"/>
    <path class="phone-top-cover" d="M168 0.210938H351.5V91L343.123 134L228.776 114.401L231.074 112.496L232.554 109.5L233.19 104.5C233.19 101.898 232.735 99.7573 232.025 97.9999C231.399 96.4488 230.575 95.1966 229.69 94.1909C227.029 91.1657 223.822 90.3692 223.822 90.3692L108.281 59.4999L103.591 59.5L102.091 60L101.091 56C101.091 56 19.0085 47.7909 0 42.9999L0.00762939 24.9999L168 0.210938Z" fill="white"/>
    <path class="phone-top" d="M223.854 90.3697L108.313 59.5003C108.313 59.5003 104.475 58.507 101.216 60.0885M223.853 90.3697C223.853 90.3697 227.06 91.1661 229.721 94.1913C230.606 95.1971 231.431 96.4492 232.057 98.0003C232.766 99.7577 233.221 101.899 233.221 104.5M233.221 104.5C233.221 108.396 232.34 110.9 231.105 112.496M233.221 104.5C233.221 106.518 232.985 108.162 232.586 109.5C232.214 110.746 231.7 111.727 231.105 112.496M231.105 112.496C228.22 116.226 223.405 115 223.405 115M343.091 114.527L0.59082 25.0524M343.091 104.172L0.59082 15.2441" stroke="url(#paint1_linear_571_14847)"/>
  </g>
  <defs>
    <linearGradient id="paint0_linear_571_14847" x1="0.68166" y1="153" x2="342.626" y2="148.398" gradientUnits="userSpaceOnUse">
      <stop stop-opacity="0"/>
      <stop offset="0.140625" stop-color="#202124"/>
      <stop offset="0.901042" stop-color="#202124"/>
      <stop offset="1" stop-opacity="0"/>
    </linearGradient>
    <linearGradient id="paint1_linear_571_14847" x1="0.590823" y1="55.0003" x2="340.591" y2="55.0003" gradientUnits="userSpaceOnUse">
      <stop stop-opacity="0"/>
      <stop offset="0.115412" stop-color="#202124"/>
      <stop offset="0.88385" stop-color="#202124"/>
      <stop offset="1" stop-opacity="0"/>
    </linearGradient>
    <clipPath id="clip0_571_14847">
      <rect width="500" height="500" fill="white"/>
    </clipPath>
  </defs>
</svg>